<?xml version="1.0" encoding="UTF-8"?>
<svg version="1.1" xmlns="http://www.w3.org/2000/svg" width="512" height="512">
<path d="M0 0 C12.81629234 10.74090031 22.25547084 23.14344373 29.75463867 38.08081055 C30.95088867 37.64768555 32.14713867 37.21456055 33.37963867 36.76831055 C55.5551024 29.57071027 78.97050009 29.42783878 100.12963867 39.83081055 C120.45824783 50.40306769 135.56012837 66.68626471 142.90698242 88.50268555 C146.7542017 101.48191643 147.64051941 114.64753698 145.75463867 128.08081055 C146.46749023 128.50491211 147.1803418 128.92901367 147.91479492 129.3659668 C162.02606461 138.00745766 170.57522955 148.83504282 174.75463867 165.08081055 C176.13032838 172.20362503 176.21620359 178.95568157 174.75463867 186.08081055 C175.80651367 186.14268555 176.85838867 186.20456055 177.94213867 186.26831055 C194.71205663 188.48264831 208.5806222 199.1135641 218.75463867 212.08081055 C229.26511927 226.27227444 232.77194376 244.89209766 230.47045898 262.22045898 C227.46596981 279.30496711 218.45318995 294.66241157 204.59057617 305.19799805 C188.74499437 315.7180675 173.68123685 318.23412469 155.04345703 318.22125244 C153.54240277 318.22383903 152.04134919 318.226853 150.54029655 318.23025584 C146.42768325 318.23829475 142.31508743 318.24011367 138.2024672 318.24085331 C133.76190111 318.24270932 129.32134397 318.25025943 124.88078308 318.25698853 C115.17594781 318.27055059 105.47111667 318.27659334 95.7662735 318.28099918 C89.70158298 318.28376539 83.63689404 318.28800345 77.57220459 318.29250336 C60.76690776 318.3046936 43.96161219 318.31499317 27.15631104 318.31837845 C26.08143889 318.31859801 25.00656674 318.31881758 23.89912271 318.3190438 C22.82173885 318.31926208 21.74435498 318.31948036 20.63432312 318.31970525 C18.45128377 318.32014871 16.26824442 318.32059527 14.08520508 318.32104492 C13.00235167 318.32126635 11.91949825 318.32148778 10.8038311 318.32171592 C-6.73179002 318.3256617 -24.26736953 318.3431101 -41.80297458 318.36640444 C-59.82474453 318.39015051 -77.84649362 318.40258179 -95.86827946 318.40374637 C-105.9794396 318.40466133 -116.09054552 318.4103686 -126.20169067 318.42856598 C-134.81361992 318.44401099 -143.42547819 318.44906158 -152.03741866 318.44082788 C-156.42623742 318.43693682 -160.81491343 318.4377749 -165.20371437 318.45188522 C-169.23206916 318.46471748 -173.26017533 318.46334593 -177.28853023 318.45129451 C-178.73540576 318.4493535 -180.18229948 318.45234083 -181.62914956 318.46113887 C-203.63141366 318.58631476 -221.99464493 313.58183797 -238.43286133 298.39331055 C-252.56154196 283.51187234 -256.88664265 264.74004198 -256.58520508 244.8190918 C-255.90579496 227.76054148 -247.61798806 213.57070819 -235.40551758 202.06518555 C-234.33624023 201.08291992 -234.33624023 201.08291992 -233.24536133 200.08081055 C-233.78805664 198.98124023 -234.33075195 197.88166992 -234.88989258 196.7487793 C-238.80702084 188.69837391 -242.49925326 180.92679605 -244.24536133 172.08081055 C-244.42583008 171.18233398 -244.60629883 170.28385742 -244.79223633 169.3581543 C-248.03980338 145.86928569 -242.35243708 123.43963295 -228.19848633 104.44018555 C-214.5995538 88.01267505 -198.07496567 78.62343703 -177.24536133 74.08081055 C-177.0262207 72.82268555 -176.80708008 71.56456055 -176.58129883 70.26831055 C-172.63483407 48.57340896 -165.39757796 28.54450188 -150.24536133 12.08081055 C-149.77501465 11.56276855 -149.30466797 11.04472656 -148.82006836 10.51098633 C-133.28132291 -6.43625661 -114.5778615 -16.60319958 -92.24536133 -21.91918945 C-91.33270508 -22.14477539 -90.42004883 -22.37036133 -89.47973633 -22.6027832 C-58.29190868 -29.06311893 -24.49393336 -19.91652464 0 0 Z " fill="#1AA1FF" transform="translate(256.245361328125,147.919189453125)"/>
<path d="M0 0 C4.68943185 4.44687503 7.92451478 9.02025529 10.75 14.8125 C11.1625 15.59625 11.575 16.38 12 17.1875 C16.69230222 27.61483826 16.42943769 41.58893795 13.1875 52.4375 C8.42443777 64.23728135 -0.31202241 74.27280009 -11.875 79.75 C-24.50629543 84.85177671 -37.15308339 85.71331503 -50.1875 81.12890625 C-63.73901794 75.30382775 -72.27039873 66.21597955 -78.15625 52.79296875 C-82.13237026 41.95804104 -81.69536218 28.09407016 -77.51953125 17.42578125 C-75.48354181 13.23477529 -73.06501607 9.51646851 -70.25 5.8125 C-69.528125 4.78125 -68.80625 3.75 -68.0625 2.6875 C-50.74076119 -17.23526668 -19.01217959 -16.06543342 0 0 Z " fill="#ACFFFF" transform="translate(354.25,58.1875)"/>
<path d="M0 0 C8.93447358 7.55159603 15.9999105 17.70265961 17.51538086 29.51513672 C17.6720215 32.09807814 17.71788766 34.650723 17.69921875 37.23828125 C17.69422363 38.15375732 17.68922852 39.0692334 17.68408203 40.01245117 C17.3585714 52.79603932 13.06264817 63.01868533 4.1328125 72.16796875 C-4.95967369 80.80187738 -13.84986381 83.46093662 -26.19921875 83.3203125 C-35.78935222 82.60261271 -43.03249289 77.64844049 -49.80078125 71.05078125 C-59.92959844 59.19832213 -62.69075682 46.3568794 -61.97558594 31.04443359 C-60.97942173 19.683153 -54.53545723 8.84594383 -45.92578125 1.61328125 C-31.74109466 -8.92268079 -14.90282844 -10.37170347 0 0 Z " fill="#1BA1FF" transform="translate(280.80078125,283.94921875)"/>
<path d="M0 0 C8.18166536 5.72992052 13.33696064 13.87415672 15.5703125 23.5625 C16.66319212 35.20293871 15.23785094 44.79388813 8.3828125 54.375 C1.68869167 62.35370692 -6.81238761 66.93427533 -17.1328125 67.9140625 C-28.04713862 68.46273929 -37.07025022 66.32958969 -45.8046875 59.375 C-52.97949141 52.52904127 -57.57255705 43.55296031 -57.86108398 33.59936523 C-57.89325299 22.2051042 -55.57021262 12.80504261 -47.44921875 4.3125 C-33.87447847 -7.45052446 -15.46538114 -9.14993611 0 0 Z " fill="#ABFFFF" transform="translate(496.4296875,218.4375)"/>
<path d="M0 0 C3.55452473 2.79551343 6.79598524 5.8122218 10 9 C10.639375 9.60457031 11.27875 10.20914062 11.9375 10.83203125 C15.90241197 14.89429597 18.39674235 19.35653488 20.8125 24.4375 C21.24792114 25.35039795 21.24792114 25.35039795 21.69213867 26.28173828 C28.30220122 40.97640079 28.16122202 58.70678397 22.76098633 73.72973633 C17.17576168 87.77263203 7.45224365 98.8345036 -6.05078125 105.74609375 C-18.63624259 111.09699851 -32.18340046 111.86146879 -45 107 C-61.44921292 99.79191794 -71.0017338 87.45044739 -77.8359375 71.296875 C-82.16034323 59.04922925 -82.28870512 40.50129999 -77.25390625 28.51953125 C-76.84011719 27.68808594 -76.42632812 26.85664063 -76 26 C-75.57589844 25.07574219 -75.15179688 24.15148437 -74.71484375 23.19921875 C-67.42266908 8.51330709 -55.35961859 -1.23842515 -40.08203125 -6.68359375 C-26.74931845 -10.66966253 -11.52765388 -7.43303122 0 0 Z M-57.375 20.6875 C-66.28810448 32.63874687 -68.50052499 45.95781208 -66.69140625 60.4765625 C-66.21116543 62.69037233 -66.21116543 62.69037233 -65 66 C-64.75507813 66.7734375 -64.51015625 67.546875 -64.2578125 68.34375 C-60.07716542 80.33073809 -51.90185835 87.93390175 -41.078125 94.09375 C-33.16384573 97.74649428 -23.21278709 97.06342992 -15.125 94.375 C-5.53363257 90.34465966 3.11380178 83.15103136 7.578125 73.63671875 C8.81287594 70.44694548 9.9496851 67.25462385 11 64 C11.33 63.01 11.66 62.02 12 61 C13.34923955 46.57509212 12.43093269 34.11713934 3.6875 22.125 C2.48872007 20.72342861 1.25981653 19.34697365 0 18 C-0.58394531 17.36320312 -1.16789062 16.72640625 -1.76953125 16.0703125 C-8.43580149 9.53035054 -17.34862979 5.80424081 -26.6875 5.5 C-38.81903312 6.18470303 -49.44835217 11.41987792 -57.375 20.6875 Z " fill="#FAFDFF" transform="translate(286,271)"/>
<path d="M0 0 C7.86587005 5.4524781 13.51223473 13.33890326 15.75 22.6796875 C17.02757312 34.7644863 15.10802641 44.37462241 7.43359375 53.8671875 C0.95828734 60.83828303 -6.98051232 64.93131991 -16.45703125 66.0625 C-26.66756041 66.42586403 -35.49649465 63.86453201 -43.46875 57.37890625 C-50.4427369 50.7260898 -54.68068672 42.80705188 -55.453125 33.13671875 C-55.6406867 22.55511256 -53.1822212 13.8405956 -46.25 5.6796875 C-33.39210214 -7.00276146 -15.56377065 -9.13290708 0 0 Z " fill="#ACFFFF" transform="translate(56.25,118.3203125)"/>
<path d="M0 0 C6.54540182 4.72127344 6.54540182 4.72127344 9 8 C9.40010548 11.65153734 9.43387335 13.32315757 7.4375 16.4375 C5 18 5 18 1.75 18.125 C-1.70947651 17.08715705 -3.05295671 16.35950412 -5.75 14.1875 C-12.68393152 8.64302682 -20.46231555 6.29350182 -29.30859375 6.68359375 C-41.02930411 8.06150019 -49.67894902 13.63576417 -57.2109375 22.578125 C-65.09353614 33.24889171 -67.26993892 44.92631301 -66 58 C-63.69876337 70.5218805 -58.43371787 81.29090891 -48 89 C-46.35613332 90.03705357 -44.69074573 91.04127342 -43 92 C-42.37738281 92.35964844 -41.75476563 92.71929687 -41.11328125 93.08984375 C-33.96043324 96.45680257 -24.64962725 96.11818481 -17.125 94.30859375 C-12.73979197 92.67099262 -9.1205155 90.45081099 -5.3125 87.75 C-2.23025909 85.59515901 -0.98972713 84.99850878 2.875 84.4375 C6 85 6 85 7.9375 86.125 C9.55824231 88.98513349 9.51742613 90.76608669 9 94 C2.32630821 102.61121522 -9.36272365 108.33296415 -20 110 C-36.38425858 111.05182895 -49.25036509 107.0703825 -61.75 96.3125 C-73.79511532 84.81644976 -79.91744502 69.93570866 -80.34350586 53.41137695 C-80.54575747 35.11622901 -75.53638627 20.51298312 -62.92578125 6.83984375 C-45.51915716 -9.79001415 -20.47410466 -12.91699611 0 0 Z " fill="#FAFCFF" transform="translate(183,271)"/>
<path d="M0 0 C6.46828814 4.01780206 11.27132876 8.66304312 13.61328125 16.11328125 C14.97585628 23.11717158 14.98620702 30.2445331 11.27734375 36.46875 C10.86613281 37.06042969 10.45492187 37.65210938 10.03125 38.26171875 C9.63035156 38.84308594 9.22945313 39.42445313 8.81640625 40.0234375 C4.51866315 45.56690324 -1.23112134 49.33113684 -6.96875 53.26171875 C-6.32325195 53.27106445 -5.67775391 53.28041016 -5.01269531 53.29003906 C-2.08061056 53.34380976 0.84989008 53.42744215 3.78125 53.51171875 C4.79703125 53.52589844 5.8128125 53.54007812 6.859375 53.5546875 C14.36781966 53.80167581 14.36781966 53.80167581 17.70703125 56.1171875 C19.51220201 59.04060563 19.53348718 60.88955483 19.03125 64.26171875 C17.42823406 66.41486318 16.54007233 67.1702299 13.87513733 67.6493988 C13.04114914 67.65480179 12.20716095 67.66020477 11.34790039 67.66577148 C10.40004166 67.67845566 9.45218292 67.69113983 8.4756012 67.70420837 C7.45369186 67.70127274 6.43178253 67.6983371 5.37890625 67.6953125 C3.80138832 67.70317528 3.80138832 67.70317528 2.19200134 67.7111969 C-0.03304155 67.71762286 -2.25811839 67.71627272 -4.4831543 67.70776367 C-7.88977535 67.69925987 -11.29471684 67.72799864 -14.70117188 67.75976562 C-16.86197866 67.76137783 -19.02278843 67.76079974 -21.18359375 67.7578125 C-22.20347885 67.76904648 -23.22336395 67.78028046 -24.27415466 67.79185486 C-31.30169249 67.7225339 -31.30169249 67.7225339 -34.64086914 65.41577148 C-35.96875 63.26171875 -35.96875 63.26171875 -36 60.30078125 C-32.90577778 51.18220213 -20.69892537 44.74629566 -12.984375 39.54833984 C-5.18945 34.41651101 -5.18945 34.41651101 -0.0234375 26.91796875 C0.32041101 22.79178661 0.22271915 20.66674965 -1.59375 16.82421875 C-5.24059828 12.8894614 -7.61222122 12.39091197 -12.90625 11.88671875 C-17.18800938 12.00003563 -19.69810008 13.45830453 -22.96875 16.26171875 C-24.76265285 18.77318274 -25.22847191 21.35826185 -25.90625 24.32421875 C-26.47045078 26.61521587 -26.97224607 28.26779087 -28.15625 30.32421875 C-31.2046981 31.90100225 -33.74149152 31.0245253 -36.96875 30.26171875 C-39.58713421 27.64333454 -39.32696377 26.35104906 -39.40625 22.69921875 C-39.25611233 15.31597782 -37.1001962 10.62245495 -32.1015625 5.2578125 C-22.94996616 -3.27062067 -11.43223093 -5.90251053 0 0 Z " fill="#FBFDFF" transform="translate(364.96875,338.73828125)"/>
</svg>
